<svg xmlns="http://www.w3.org/2000/svg" viewBox="0 0 38 20">
  <rect width="38" height="20" fill="#B22234"/>
  <g fill="#fff">
    <rect y="1.538" width="38" height="1.538"/>
    <rect y="4.615" width="38" height="1.538"/>
    <rect y="7.692" width="38" height="1.538"/>
    <rect y="10.769" width="38" height="1.538"/>
    <rect y="13.846" width="38" height="1.538"/>
    <rect y="16.923" width="38" height="1.538"/>
  </g>
  <rect width="15.2" height="10.769" fill="#3C3B6E"/>
  <g fill="#fff">
    <circle cx="2.2" cy="1.8" r="0.7"/>
    <circle cx="5.3" cy="1.8" r="0.7"/>
    <circle cx="8.4" cy="1.8" r="0.7"/>
    <circle cx="11.5" cy="1.8" r="0.7"/>
    <circle cx="3.7" cy="3.6" r="0.7"/>
    <circle cx="6.8" cy="3.6" r="0.7"/>
    <circle cx="9.9" cy="3.6" r="0.7"/>
    <circle cx="13.0" cy="3.6" r="0.7"/>
    <circle cx="2.2" cy="5.4" r="0.7"/>
    <circle cx="5.3" cy="5.4" r="0.7"/>
    <circle cx="8.4" cy="5.4" r="0.7"/>
    <circle cx="11.5" cy="5.4" r="0.7"/>
    <circle cx="3.7" cy="7.2" r="0.7"/>
    <circle cx="6.8" cy="7.2" r="0.7"/>
    <circle cx="9.9" cy="7.2" r="0.7"/>
    <circle cx="13.0" cy="7.2" r="0.7"/>
    <circle cx="2.2" cy="9.0" r="0.7"/>
    <circle cx="5.3" cy="9.0" r="0.7"/>
    <circle cx="8.4" cy="9.0" r="0.7"/>
    <circle cx="11.5" cy="9.0" r="0.7"/>
  </g>
</svg>
