<svg xmlns="http://www.w3.org/2000/svg" viewBox="0 0 64 64">
  <defs>
    <linearGradient id="bg" x1="0" y1="0" x2="0" y2="64" gradientUnits="userSpaceOnUse">
      <stop offset="0" stop-color="#54c86e"/>
      <stop offset="1" stop-color="#15662f"/>
    </linearGradient>
    <linearGradient id="leaf" x1="0" y1="4" x2="0" y2="60" gradientUnits="userSpaceOnUse">
      <stop offset="0" stop-color="#cdef6e"/>
      <stop offset="0.55" stop-color="#7cc24a"/>
      <stop offset="1" stop-color="#3f9a44"/>
    </linearGradient>
  </defs>
  <rect x="1" y="1" width="62" height="62" rx="15" fill="url(#bg)"/>
  <g fill="url(#leaf)" stroke="#2c7a40" stroke-width="0.9" stroke-linejoin="round">
    <path d="M 32 32 C 36 24, 50 22, 50 12 C 50 4, 40 2, 32 10 C 24 2, 14 4, 14 12 C 14 22, 28 24, 32 32 Z" transform="rotate(45 32 32)"/>
    <path d="M 32 32 C 36 24, 50 22, 50 12 C 50 4, 40 2, 32 10 C 24 2, 14 4, 14 12 C 14 22, 28 24, 32 32 Z" transform="rotate(135 32 32)"/>
    <path d="M 32 32 C 36 24, 50 22, 50 12 C 50 4, 40 2, 32 10 C 24 2, 14 4, 14 12 C 14 22, 28 24, 32 32 Z" transform="rotate(225 32 32)"/>
    <path d="M 32 32 C 36 24, 50 22, 50 12 C 50 4, 40 2, 32 10 C 24 2, 14 4, 14 12 C 14 22, 28 24, 32 32 Z" transform="rotate(315 32 32)"/>
  </g>
  <ellipse cx="24" cy="16" rx="15" ry="8" fill="#ffffff" opacity="0.14"/>
</svg>
